<svg xmlns="http://www.w3.org/2000/svg" viewBox="0 0 60.37 60.37"><defs><style>.cls-1{fill:#f1780d;}.cls-2{fill:#fff;}</style></defs><title>sec1</title><g id="Capa_2" data-name="Capa 2"><g id="inicio_movil" data-name="inicio movil"><circle class="cls-1" cx="30.18" cy="30.18" r="30.18"/><path class="cls-2" d="M44.16,19.89H42v7.53h.88v3.46H41.18V19.45a4.2,4.2,0,0,0-4.2-4.2H23.13a4.2,4.2,0,0,0-4.2,4.2V30.67H17.48V27h.92V19.45H16.21V27h.92v4h1.8v8.23a4.2,4.2,0,0,0,2.19,3.69v2.18H24.8V43.46H35.22v1.66H38.9V43a4.2,4.2,0,0,0,2.28-3.73v-8h2V27.42h1V19.89ZM25.23,16.12H35V18.4H25.23Zm1.05,23H20.85V36.62h5.43Zm13.14,0H34V36.62h5.43Zm0-7.88S38.37,34.52,30,34.52s-9.29-3.33-9.29-3.33V19.63H39.42Z"/></g></g></svg>
