<svg xmlns="http://www.w3.org/2000/svg" viewBox="0 0 60.37 60.37"><defs><style>.cls-1{fill:#f1780d;}.cls-2{fill:#fff;}</style></defs><title>sec2</title><g id="Capa_2" data-name="Capa 2"><g id="inicio_movil" data-name="inicio movil"><circle class="cls-1" cx="30.18" cy="30.18" r="30.18"/><path class="cls-2" d="M25.15,17H21.6a.62.62,0,0,0-.62.62v3.55a.62.62,0,0,0,.62.62h3.55a.62.62,0,0,0,.62-.62V17.64A.62.62,0,0,0,25.15,17Zm-.62,3.55H22.22V18.26h2.31Z"/><path class="cls-2" d="M31.5,17H28a.62.62,0,0,0-.62.62v3.55a.62.62,0,0,0,.62.62H31.5a.62.62,0,0,0,.62-.62V17.64A.62.62,0,0,0,31.5,17Zm-.62,3.55H28.57V18.26h2.31Z"/><path class="cls-2" d="M25.15,23.32H21.6a.62.62,0,0,0-.62.62v3.55a.62.62,0,0,0,.62.62h3.55a.62.62,0,0,0,.62-.62V23.94A.62.62,0,0,0,25.15,23.32Zm-.62,3.55H22.22V24.55h2.31Z"/><path class="cls-2" d="M31.5,23.32H28a.62.62,0,0,0-.62.62v3.55a.62.62,0,0,0,.62.62H31.5a.62.62,0,0,0,.62-.62V23.94A.62.62,0,0,0,31.5,23.32Zm-.62,3.55H28.57V24.55h2.31Z"/><path class="cls-2" d="M25.15,29.61H21.6a.62.62,0,0,0-.62.62v3.55a.62.62,0,0,0,.62.62h3.55a.62.62,0,0,0,.62-.62V30.23A.62.62,0,0,0,25.15,29.61Zm-.62,3.55H22.22V30.85h2.31Z"/><path class="cls-2" d="M31.5,29.61H28a.62.62,0,0,0-.62.62v3.55a.62.62,0,0,0,.62.62H31.5a.62.62,0,0,0,.62-.62V30.23A.62.62,0,0,0,31.5,29.61Zm-.62,3.55H28.57V30.85h2.31Z"/><path class="cls-2" d="M36.41,34.8a5.46,5.46,0,0,0-1.78.3V15.21a.62.62,0,0,0-.62-.62H19.09a.62.62,0,0,0-.62.62V42.73a.62.62,0,0,0,.62.62H31.86a5.49,5.49,0,1,0,4.55-8.54Zm-7.57,7.3H27.17v-1.7a.62.62,0,1,0-1.24,0v1.7H24.25V37.43h4.59v4.68Zm2.39,0H30.09v-5.3a.62.62,0,0,0-.62-.62H23.63a.62.62,0,0,0-.62.62v5.3H19.71V15.83H33.39V35.71a5.48,5.48,0,0,0-2.16,6.4Zm5.18,2.43a4.25,4.25,0,1,1,4.25-4.25A4.25,4.25,0,0,1,36.41,44.54Z"/><path class="cls-2" d="M26.55,38a.62.62,0,0,0-.62.62v.06a.62.62,0,1,0,1.24,0v-.06A.62.62,0,0,0,26.55,38Z"/><path class="cls-2" d="M39.85,39.16a.62.62,0,0,0-.59-.43H37.54L37,37.1a.62.62,0,0,0-1.18,0l-.53,1.64H33.57a.62.62,0,0,0-.36,1.12l1.39,1-.53,1.64a.62.62,0,0,0,1,.69l1.39-1,1.39,1a.62.62,0,0,0,1-.69l-.53-1.64,1.39-1A.62.62,0,0,0,39.85,39.16Zm-2.71,1a.62.62,0,0,0-.23.69l.08.25-.21-.16a.62.62,0,0,0-.73,0l-.21.16.08-.25a.62.62,0,0,0-.23-.69L35.48,40h.27a.62.62,0,0,0,.59-.43l.08-.25.08.25a.62.62,0,0,0,.59.43h.27Z"/></g></g></svg>
