<svg xmlns="http://www.w3.org/2000/svg" viewBox="0 0 60.37 60.37"><defs><style>.cls-1{fill:#f1780d;}.cls-2{fill:#fff;}</style></defs><title>sec3</title><g id="Capa_2" data-name="Capa 2"><g id="inicio_movil" data-name="inicio movil"><circle class="cls-1" cx="30.18" cy="30.18" r="30.18"/><g id="Layer_1" data-name="Layer 1"><path class="cls-2" d="M28.92,41.26a7.85,7.85,0,0,0,1.3.07,10.1,10.1,0,0,0,1.44-.07l.21-6.7a4.49,4.49,0,0,1-1.16-.82,3.4,3.4,0,0,1-.89-2.53l.34-4.58a3.73,3.73,0,0,1-1.64,1.23Z"/><path class="cls-2" d="M38.7,17.4v2.94a13,13,0,0,1,0,19.83v2.94a15.42,15.42,0,0,0,0-25.71Z"/><path class="cls-2" d="M30.7,16.37v.75H31a4.23,4.23,0,0,1,1.57-2.19,13.35,13.35,0,0,0-2.32-.21h-.27A2.61,2.61,0,0,1,30.7,16.37Z"/><path class="cls-2" d="M38.7,23.14V37.3a10.82,10.82,0,0,0,2.6-7.11A11.29,11.29,0,0,0,38.7,23.14Z"/><path class="cls-2" d="M20.37,25.06a11,11,0,0,0-1.3,5.13,11.12,11.12,0,0,0,3,7.59l.34-10.05A3.06,3.06,0,0,1,20.37,25.06Z"/><path class="cls-2" d="M31.52,43.45v-.21a9.18,9.18,0,0,1-1.37.07,7.44,7.44,0,0,1-1.23-.07v.21a3.16,3.16,0,0,1-.75,2.05,18,18,0,0,0,1.91.14c.68,0,1.37-.07,2.05-.14A4,4,0,0,1,31.52,43.45Z"/><path class="cls-2" d="M17.09,30.25a12.84,12.84,0,0,1,3.28-8.62V18.35a15.45,15.45,0,0,0,1.57,25l.07-2.8A13.36,13.36,0,0,1,17.09,30.25Z"/><path class="cls-2" d="M35.48,15.35h0a3.43,3.43,0,0,0-3.42,3.15l-.89,12.79a1.81,1.81,0,0,0,.55,1.5,2.07,2.07,0,0,0,1.5.68h.07L33,43.52a1.6,1.6,0,0,0,.48,1.16,1.41,1.41,0,0,0,1.16.48h1.16a1.59,1.59,0,0,0,1.57-1.57V17.19A1.84,1.84,0,0,0,35.48,15.35Z"/><path class="cls-2" d="M27.14,26.63h.34a1.9,1.9,0,0,0,1.91-1.85V16.37a.61.61,0,0,0-.62-.62h-.14a.56.56,0,0,0-.55.62v5.54a.91.91,0,0,1-.89.89h-.14a.91.91,0,0,1-.89-.89V16.37a.6.6,0,0,0-.55-.62H25.5a.61.61,0,0,0-.62.62v5.54a.91.91,0,0,1-.89.89h-.14a.91.91,0,0,1-.89-.89V16.37a.6.6,0,0,0-.55-.62h-.14a.56.56,0,0,0-.55.62v8.41a1.84,1.84,0,0,0,1.85,1.85h.27l-.55,16.89a1.86,1.86,0,0,0,.41,1.16,1.61,1.61,0,0,0,1.09.48H26a1.61,1.61,0,0,0,1.09-.48,1.45,1.45,0,0,0,.41-1.16Z"/></g></g></g></svg>
