<svg xmlns="http://www.w3.org/2000/svg" viewBox="0 0 60.37 60.37"><defs><style>.cls-1{fill:#f1780d;}.cls-2{fill:#fff;}</style></defs><title>sec4</title><g id="Capa_2" data-name="Capa 2"><g id="inicio_movil" data-name="inicio movil"><circle class="cls-1" cx="30.18" cy="30.18" r="30.18"/><path class="cls-2" d="M41.7,21.75a8.48,8.48,0,0,0,1.74-4.32,1.68,1.68,0,0,0-.21-.88.79.79,0,0,0-.26-.28,1.4,1.4,0,0,0-.84-.23,7.41,7.41,0,0,0-4,1.86,36,36,0,0,0-4,4.1l-.88,1-3.16-1h0a.79.79,0,0,0,0-1.06l-.57-.61a.69.69,0,0,0-.5-.22.68.68,0,0,0-.5.22l-.85.91-.45-.14a.79.79,0,0,0-.06-1l-.57-.61a.69.69,0,0,0-.5-.22.67.67,0,0,0-.5.22l-.78.83-3.21-1a.76.76,0,0,0-.23,0,.82.82,0,0,0-.59.26l-1.13,1.2a.73.73,0,0,0-.2.5.7.7,0,0,0,.34.62l6.75,4,.16.13L28.61,28c-1.8,2-3.41,4-4.66,5.69l-.34.47-5.22-.51H18.3a.93.93,0,0,0-.65.29l-.53.56a.72.72,0,0,0-.2.5.69.69,0,0,0,.38.63L21,37.49l.14.11.31.32a2.52,2.52,0,0,0-.15.75,1,1,0,0,0,.26.72h0a.9.9,0,0,0,.68.27,2.13,2.13,0,0,0,.7-.16l.31.33a.9.9,0,0,1,.1.15l1.74,3.91a.65.65,0,0,0,.59.41h0a.63.63,0,0,0,.46-.21l.54-.58a1.06,1.06,0,0,0,.26-.69s0-.06,0-.07l-.48-5.59.44-.36c1.6-1.34,3.44-3,5.33-5l1.93,2.06a1.1,1.1,0,0,1,.13.18L38,41.29a.65.65,0,0,0,.58.38.64.64,0,0,0,.47-.21l1.14-1.21a1,1,0,0,0,.23-.63.92.92,0,0,0,0-.24l-1-3.43.78-.84a.79.79,0,0,0,0-1.07l-.57-.61a.69.69,0,0,0-.5-.22.68.68,0,0,0-.43.16l-.13-.48.85-.91a.79.79,0,0,0,.21-.53.77.77,0,0,0-.21-.53l-.57-.61a.68.68,0,0,0-1,0h0l-.95-3.37.93-.95A36.17,36.17,0,0,0,41.7,21.75Z"/></g></g></svg>
